<svg width="200" height="200" viewBox="0 0 200 200" fill="none" xmlns="http://www.w3.org/2000/svg">
<rect width="200" height="200" rx="100" fill="#161616"/>
<path d="M98 57.5L102.5 61.5" stroke="#FF8A00" stroke-width="3"/>
<path d="M102 53L106.5 57" stroke="#FF8A00" stroke-width="3"/>
<path d="M100.5 65.5L110.5 55M109 63L106 61.5" stroke="#FF8A00" stroke-width="5"/>
<path d="M97.5508 75.4473C105.7 74.6684 112.647 77.0395 119.462 81.8389C126.393 86.7206 131.354 93.9792 133.428 102.278C135.501 110.578 134.547 119.357 130.743 126.999C126.939 134.641 120.541 140.63 112.729 143.865C104.918 147.1 96.2166 147.364 88.2285 144.607C80.2403 141.851 73.501 136.26 69.2539 128.862C65.0069 121.464 63.5388 112.759 65.1201 104.349C66.6699 96.1064 71.0468 88.6947 77.4639 83.4199L80.2393 86.9951C74.6652 91.5924 70.8658 98.0395 69.5186 105.204C68.1407 112.532 69.4196 120.118 73.1211 126.565C76.8227 133.013 82.6986 137.89 89.667 140.294C96.6355 142.698 104.227 142.468 111.041 139.646C117.855 136.825 123.433 131.601 126.748 124.941C130.063 118.281 130.894 110.632 129.087 103.4C127.28 96.1693 122.958 89.842 116.913 85.585C111.03 81.442 105.158 79.312 98.0371 79.9756L97.5508 75.4473Z" fill="#FF8A00" stroke="#FF8A00"/>
<path d="M98.9089 80.6486C100.372 79.8705 100.927 78.0539 100.149 76.5911C99.3705 75.1283 97.5539 74.5733 96.0911 75.3514L97.5 78L98.9089 80.6486ZM97.5 78L96.0911 75.3514C89.5962 78.8063 86.3473 83.5709 86.3646 88.6352C86.3812 93.5329 89.4736 97.6959 93.447 99.9768C97.4789 102.291 102.805 102.914 107.718 100.346C112.631 97.7794 116.556 92.3353 118.555 83.6747L115.631 83L112.708 82.3253C110.957 89.9147 107.802 93.5331 104.94 95.0286C102.079 96.5236 98.9347 96.2087 96.4341 94.7732C93.8749 93.3041 92.3723 90.9046 92.3645 88.6148C92.3573 86.4916 93.6544 83.4437 98.9089 80.6486L97.5 78Z" fill="#FF8A00"/>
<path d="M115.5 83C115.333 77.1667 113.6 64.8 108 62" stroke="#FF8A00" stroke-width="6"/>
</svg>
